# xmcd CD database file
#
# Track frame offsets:
#	150
#	17497
#	31936
#	49268
#
# Disc length: 847 seconds
#
# Revision: 0
# Processed by: cddbd v1.5PL3 Copyright (c) Steve Scherf et al.
# Submitted via: CDex 1.51
#
DISCID=26034d04
DTITLE=桜井亜弓 - Happy end しようよ！
DYEAR=1996
DGENRE=Pop
TTITLE0=Happy end しようよ！
TTITLE1=Friendship
TTITLE2=Happy end しようよ！(オリジナル・カラオケ)
TTITLE3=Friendship(オリジナル・カラオケ)
EXTD=YEAR: 1996
EXTT0=
EXTT1=
EXTT2=
EXTT3=
PLAYORDER=
